<svg width="211" height="140" viewBox="0 0 211 140" fill="none" xmlns="http://www.w3.org/2000/svg">
    <path fill-rule="evenodd" clip-rule="evenodd"
        d="M97.4472 0.0271577C95.9405 -0.184623 94.5472 0.865268 94.3351 2.37215C94.1239 3.87906 95.1739 5.2723 96.6805 5.48409L98.4997 5.73975L96.326 21.201L99.0165 21.579L100.515 10.9084C100.798 8.89917 102.656 7.49931 104.665 7.78167C106.674 8.06411 108.074 9.92172 107.792 11.9309L106.292 22.6015L109.324 23.0276L110.823 12.357C111.106 10.3478 112.964 8.94793 114.972 9.23029C116.981 9.51273 118.381 11.3703 118.099 13.3795L116.599 24.0502L119.778 24.4969L121.278 13.8263C121.56 11.8171 123.417 10.4172 125.427 10.6996C127.436 10.982 128.836 12.8396 128.554 14.8489L127.054 25.5195L129.674 25.8877L131.847 10.4264L133.666 10.6821C135.173 10.8939 136.566 9.84394 136.778 8.33711C136.99 6.83021 135.94 5.43696 134.434 5.22517L97.4472 0.0271577Z"
        fill="#999999" />
    <path fill-rule="evenodd" clip-rule="evenodd"
        d="M90.3291 20.2844C88.655 20.0491 87.1072 21.2157 86.8719 22.89C86.6367 24.5643 87.8034 26.1124 89.4775 26.3477L92.5088 26.7737L90.421 41.6287L93.0848 42.003L94.6198 31.0761C94.9023 29.0669 96.76 27.667 98.7689 27.9495C100.779 28.2318 102.178 30.0895 101.896 32.0987L100.361 43.0255L102.162 43.2787L103.698 32.3518C103.98 30.3426 105.837 28.9428 107.847 29.2251C109.855 29.5076 111.256 31.3652 110.973 33.3744L109.437 44.3012L111.257 44.5569L112.792 33.63C113.075 31.6208 114.932 30.221 116.941 30.5033C118.95 30.7858 120.351 32.6434 120.068 34.6526L118.532 45.5794L120.351 45.8351L121.887 34.9082C122.17 32.899 124.027 31.4992 126.036 31.7815C128.045 32.064 129.445 33.9216 129.163 35.9308L127.627 46.8577L129.833 47.1676L131.92 32.3126L134.952 32.7387C136.626 32.974 138.174 31.8075 138.41 30.1331C138.645 28.4588 137.478 26.9107 135.804 26.6754L90.3291 20.2844Z"
        fill="#999999" />
    <path fill-rule="evenodd" clip-rule="evenodd"
        d="M87.3983 41.1432C85.7243 40.9078 84.1755 42.0744 83.9403 43.7487C83.7051 45.423 84.8718 46.971 86.5458 47.2063L89.578 47.6324L87.4902 62.4874L90.1549 62.8619L91.6865 51.967C91.9689 49.9579 93.8267 48.558 95.8356 48.8404C97.8453 49.1227 99.2446 50.9804 98.9622 52.9895L97.4315 63.8845L99.0944 64.1182L100.625 53.2232C100.908 51.2141 102.765 49.8143 104.774 50.0966C106.784 50.379 108.183 52.2367 107.901 54.2459L106.37 65.1407L108.189 65.3964L109.72 54.5014C110.002 52.4923 111.86 51.0925 113.869 51.3748C115.879 51.6572 117.278 53.5149 116.996 55.524L115.465 66.4189L117.284 66.6746L118.815 55.7796C119.097 53.7705 120.955 52.3707 122.964 52.653C124.974 52.9354 126.373 54.7931 126.09 56.8022L124.56 67.6971L126.901 68.0262L128.989 53.1713L132.02 53.5974C133.695 53.8327 135.243 52.6661 135.478 50.9918C135.713 49.3174 134.547 47.7694 132.873 47.5341L87.3983 41.1432Z"
        fill="#999999" />
    <path fill-rule="evenodd" clip-rule="evenodd"
        d="M84.5077 62.0133C82.8328 61.778 81.2849 62.9445 81.0497 64.6189C80.8145 66.2932 81.9811 67.8412 83.6552 68.0765L86.6874 68.5026L84.6416 83.0543L87.2961 83.4278L88.7941 72.7664C89.0766 70.7572 90.9343 69.3574 92.9432 69.6398C94.9529 69.9222 96.3523 71.7798 96.0698 73.789L94.5718 84.4502L96.2347 84.6838L97.7327 74.0227C98.0152 72.0135 99.873 70.6136 101.882 70.896C103.892 71.1784 105.291 73.0361 105.008 75.0452L103.51 85.7062L105.33 85.962L106.828 75.3009C107.11 73.2917 108.968 71.8918 110.977 72.1743C112.986 72.4566 114.386 74.3143 114.103 76.3234L112.605 86.9845L114.424 87.2403L115.922 76.5791C116.205 74.5699 118.063 73.17 120.072 73.4524C122.081 73.7348 123.481 75.5924 123.198 77.6016L121.7 88.2628L124.053 88.5933L126.098 74.0415L129.129 74.4675C130.804 74.7029 132.352 73.5363 132.587 71.8619C132.823 70.1876 131.656 68.6396 129.982 68.4043L84.5077 62.0133Z"
        fill="#999999" />
    <path fill-rule="evenodd" clip-rule="evenodd"
        d="M80.7158 82.3143C79.0418 82.079 77.4939 83.2457 77.2587 84.9207C77.0234 86.5947 78.1901 88.1426 79.8642 88.3778L83.7377 88.9221L81.6662 103.659L84.5558 104.065L86.0831 93.1999C86.3655 91.1911 88.2233 89.7909 90.2322 90.0733C92.241 90.3558 93.6412 92.2135 93.3588 94.2224L91.8315 105.087L93.4944 105.321L95.0217 94.4568C95.3041 92.447 97.1619 91.0477 99.1708 91.3301C101.18 91.6117 102.58 93.4695 102.297 95.4792L100.77 106.343L102.589 106.599L104.117 95.7342C104.399 93.7253 106.257 92.326 108.266 92.6076C110.274 92.89 111.675 94.7478 111.392 96.7575L109.865 107.622L111.587 107.864L113.114 96.9988C113.397 94.9899 115.255 93.5905 117.263 93.8721C119.272 94.1546 120.673 96.0124 120.39 98.0221L118.863 108.886L121.077 109.198L123.148 94.4611L125.338 94.7693C127.012 95.0045 128.56 93.8378 128.796 92.1637C129.032 90.4888 127.865 88.941 126.19 88.7057L80.7158 82.3143Z"
        fill="#999999" />
    <path fill-rule="evenodd" clip-rule="evenodd"
        d="M74.9925 105.736C75.2278 104.061 76.7756 102.895 78.4505 103.13L123.925 109.521C125.599 109.756 126.766 111.304 126.53 112.979C126.295 114.653 124.746 115.819 123.072 115.584L120.041 115.158L117.194 135.41H119.994C121.179 135.41 122.14 136.371 122.14 137.556C122.14 138.742 121.179 139.703 119.994 139.703H72.2419C71.0572 139.703 70.0957 138.742 70.0957 137.556C70.0957 136.371 71.0572 135.41 72.2419 135.41H76.1798L80.6114 109.617L77.5981 109.193C75.924 108.958 74.7573 107.41 74.9925 105.736ZM104.566 135.41H114.789L116.81 121.462C117.199 118.777 115.293 116.282 112.606 115.904C109.965 115.533 107.475 117.338 107.051 119.971L104.566 135.41ZM78.6677 135.41L81.5986 116.89C82.0158 114.25 84.5046 112.437 87.1505 112.809C89.8367 113.186 91.7374 115.68 91.3502 118.364L88.9207 135.195L78.6677 135.41ZM99.8896 114.28C97.2455 113.908 94.7567 115.718 94.3361 118.355L91.6172 135.41L101.856 135.297L104.09 119.837C104.479 117.152 102.576 114.658 99.8896 114.28Z"
        fill="#999999" />
    <path d="M8 69.3666L52.6081 43.6119" stroke="#EA4335" stroke-width="15" stroke-linecap="round" />
    <path d="M8 69.3666L52.6081 95.1212" stroke="#4285F4" stroke-width="15" stroke-linecap="round" />
    <path d="M203.063 70.9211L158.455 96.676" stroke="#FBBC04" stroke-width="15"
        stroke-linecap="round" />
    <path d="M203.063 70.9211L158.455 45.1664" stroke="#34A853" stroke-width="15"
        stroke-linecap="round" />
</svg>